<svg xmlns="http://www.w3.org/2000/svg" xmlns:xlink="http://www.w3.org/1999/xlink" width="801.984" height="592.03" viewBox="0 0 801.984 592.03"><defs><style>.a,.d{fill:#3494ba;}.a,.p{opacity:0.1;}.b{opacity:0.2;}.c,.j{fill:none;stroke:#535461;stroke-miterlimit:10;}.c{stroke-width:2px;}.e{fill:url(#a);}.f{fill:#f6f7f9;}.g{fill:url(#b);}.h{fill:#797c9c;}.i{opacity:0.05;}.k{opacity:0.25;}.l{fill:#e8eaf1;}.m{fill:#ffb9b9;}.n{fill:#e4e2f3;}.o{fill:#4c4c78;}.q{fill:#b36362;}.r{fill:url(#d);}.s{fill:#db8b8b;}.t{fill:#474463;}.u{fill:#cbcdda;}.v{fill:#472727;}</style><linearGradient id="a" x1="0.5" y1="1" x2="0.5" gradientUnits="objectBoundingBox"><stop offset="0" stop-color="gray" stop-opacity="0.251"/><stop offset="0.54" stop-color="gray" stop-opacity="0.122"/><stop offset="1" stop-color="gray" stop-opacity="0.102"/></linearGradient><linearGradient id="b" y2="0" xlink:href="#a"/><linearGradient id="d" x1="16.117" x2="16.117" y2="0" xlink:href="#a"/></defs><g transform="translate(-0.006 -0.011)"><path class="a" d="M121.913,452.317c-9.616,1.563-21.676,6.034-21.564,16.427.056,5.273,3.558,9.768,6.963,13.622a258.829,258.829,0,0,0,49.145,43.408c8.67,5.874,17.99,11.491,23.751,20.57s7.212,20.634,7.669,31.628a243.1,243.1,0,0,1-9.087,77.127c28.23,5.377,59.714,10.089,83.241-6.891,14.087-10.169,23.615-27.2,39.313-34.256,10.481-4.712,22.349-4.3,33.776-3.694q81.134,4.271,161.867,16.026c22.541,3.285,45.515,7,67.816,2.757s44.241-18.1,52.462-40.563c1.266-3.462,2.4-7.324,5.241-9.407,2.564-1.859,5.922-1.819,9.039-1.707l188.374,6.475c10.321.353,21,.641,30.45-3.606,9.159-4.111,16.2-12.02,22.982-19.769,15.505-17.677,32.181-39.425,27.621-63.416-3.646-19.232-19.945-32.67-36.107-42.077S830.873,437.861,819,422.82c-18.07-22.894-17.357-55.66-18.478-85.365a474.194,474.194,0,0,0-9.9-80c-4.9-23.15-11.715-46.332-24.464-65.885s-32.245-35.21-54.3-38.079c-28.8-3.75-57.751,14.215-85.926,6.587-23.8-6.411-40.178-29.192-59.9-44.978-35.026-28.046-80.989-33.92-124.445-34.457-46.076-.585-93.37,4.079-134.437,25.714-9.408,4.952-18.607,10.946-25.121,19.7-9.984,13.422-12.4,31.452-18.935,47.142C236.775,236.377,151.162,250,123.372,312.5c-9.864,22.173-9.768,48.031-2.58,71.317,7.733,25.057,29.5,38.9,38.127,60.74C149.631,450.538,133.172,450.482,121.913,452.317Z" transform="translate(-99.748 -80.59)"/><g class="b" transform="translate(690.761 118.819)"><path class="c" d="M985.15,415.3s3.846-51.1,32.726-78.866a77.648,77.648,0,0,0,23.1-43.343,130.615,130.615,0,0,0,1.6-23.823" transform="translate(-966.301 -236.894)"/><path class="d" d="M1074.229,243.638c-2.131,5.609-18.51,18.118-18.51,18.118s-4.007-20.2-1.891-25.835a10.91,10.91,0,1,1,20.41,7.717Z" transform="translate(-979.824 -228.866)"/><path class="d" d="M1079.466,289.326c-4.848,3.574-25.386,5.144-25.386,5.144s7.6-19.144,12.453-22.717a10.906,10.906,0,0,1,12.933,17.565Z" transform="translate(-979.996 -236.965)"/><path class="d" d="M1053.592,355.034c-5.994.633-24.512-8.374-24.512-8.374s16.227-12.685,22.213-13.326a10.911,10.911,0,1,1,2.3,21.7Z" transform="translate(-975.029 -249.61)"/><path class="d" d="M1022.308,400.782c-5.8,1.6-25.578-4.111-25.578-4.111s13.847-15.225,19.648-16.884a10.908,10.908,0,0,1,5.93,20.995Z" transform="translate(-968.602 -258.769)"/><path class="d" d="M1026.573,288.036c2.556,5.457,19.849,16.643,19.849,16.643s2.46-20.45-.1-25.907a10.908,10.908,0,0,0-19.753,9.263Z" transform="translate(-974.326 -237.534)"/><path class="d" d="M990.507,341.217c4.071,4.439,23.919,9.944,23.919,9.944s-3.774-20.249-7.845-24.689A10.909,10.909,0,0,0,990.5,341.217Z" transform="translate(-966.794 -247.556)"/><path class="d" d="M963.368,398.673c3.261,5.064,21.9,13.839,21.9,13.839s-.3-20.594-3.558-25.642a10.91,10.91,0,1,0-18.342,11.819Z" transform="translate(-961.628 -259.265)"/></g><path class="e" d="M164.14,87.83V457.239H757.758V87.83Z" transform="translate(-32.61 -17.448)"/><rect class="f" width="581.077" height="28.214" transform="translate(137.804 74.285)"/><g class="b" transform="translate(137.804 74.285)"><rect class="d" width="581.077" height="28.214"/></g><rect class="f" width="581.077" height="333.389" transform="translate(137.804 102.499)"/><circle class="f" cx="6.274" cy="6.274" r="6.274" transform="translate(145.465 81.945)"/><circle class="f" cx="6.274" cy="6.274" r="6.274" transform="translate(162.18 81.945)"/><circle class="f" cx="6.274" cy="6.274" r="6.274" transform="translate(178.904 81.945)"/><g class="b" transform="translate(158.006 143.959)"><rect class="d" width="298.9" height="21.596"/></g><g class="b" transform="translate(533.544 143.959)"><rect class="d" width="156.762" height="21.596"/></g><g class="b" transform="translate(216.181 249.165)"><rect class="d" width="20.898" height="68.978" transform="translate(0 98.939)"/><rect class="d" width="20.898" height="118.443" transform="translate(40.411 49.465)"/><rect class="d" width="20.898" height="167.909" transform="translate(80.821)"/><rect class="d" width="20.898" height="151.89" transform="translate(121.232 16.026)"/><rect class="d" width="20.898" height="104.508" transform="translate(161.642 63.4)"/></g><g class="b" transform="translate(533.2 212.937)"><rect class="d" width="156.762" height="192.645"/></g><path class="g" d="M1070.042,495.535c-1-5.1-2.925-10.081-2.973-15.273-.072-8.43,4.415-18.222-1.482-24.448-1.346-1.418-3.149-2.476-4.151-4.135a9.1,9.1,0,0,1-1.042-4.664c-.1-9.832,5.321-19.817,2.075-29.136a9.9,9.9,0,0,0-3.718-5.185,10.786,10.786,0,0,0-6.306-1.41c-2.075,0-4.263.232-6.411.272a13.853,13.853,0,0,1-3.6-.473c-2.484-.705-4.592-2.332-7.052-3.133a11.523,11.523,0,0,0-4.007-.553c-5.385-.176-10.305,3.406-14.135,6.875a52.792,52.792,0,0,1-6.05,4.4c.321-.224-7.476,5.128-4.543,5.185a10.209,10.209,0,0,1,5.8,2.019,15.674,15.674,0,0,0,.8,18.174c-1.274-1.25-2.684-2.62-4.127-4.007-4.3-4.223-10.3-9.888-13.118-11.435a92.84,92.84,0,0,1-11.266-7.909s-8.614,4.808-5.962,11.483a26.807,26.807,0,0,1,3.694,1.45,6.917,6.917,0,0,0,.5,2.588,28.527,28.527,0,0,1,7.653,3.75,13.045,13.045,0,0,1,.737,1.146c1.146,2,4.712,5.649,9.071,9.7,3.061,3.069,7.092,6.739,11.106,10.273-1.21,2.4-2.484,4.808-2.708,7.212a8.88,8.88,0,0,1-.906-.417c-5.962-3.205-19.873-2.869-19.873-2.869s-11.6-6.058-13.911-19.769c0,0-2.316-8.294-1.659-10.521h-.04l.3-.064,2.781-5.04a2.228,2.228,0,0,0-1.827-3.269c-13.558-1.218-14.2,11.218-14.2,11.218h.12l-.04.1c1.659,7.973,2.981,7.332,2.652,13.711l5.3,14.031s.328,4.808,9.936,11.162S998,492.851,998,492.851s-5.794,3.029-3.646,16.9c2.628,16.956-1.322,41.14-1.322,41.14v15.626l.737-.2c-.1.521-.184,1.074-.28,1.675a87.988,87.988,0,0,0-.457,23.727c1.987,16.587,9.936,39.265,9.936,39.265s2.981,7.973,3.646,14.352a13.228,13.228,0,0,0,.849,3.686,28.983,28.983,0,0,1,2.324,11.066,77.92,77.92,0,0,0,5.1,27.974c3.358,8.526,4.608,13.526,4.976,16.443-2.4,3.109-5.5,6.5-7.957,6.835-4.64.641-13.582,1.274-7.621,8.927a5.453,5.453,0,0,0,.689.729c-4.528.721-9.5,2.308-4.664,8.518,5.962,7.653,41.068,4.143,41.068,4.143s.224-4.255,0-8.927c2.46-.168,4.007-.32,4.007-.32s.994-18.495-3.309-20.73a9.3,9.3,0,0,0-2.324.561c-.465-2.556-.8-5.737-1.042-8.085l1.707-.128V695.9h.1v-27.87s-1.987-17.22-9.271-24.841a15.482,15.482,0,0,1-2.4-3.205l-.1-.2c.048-2.18.048-5.12,0-8.494l.1-.184c.128-.208.256-.393.377-.561a6.958,6.958,0,0,1,.545-.641l.1-.136h0s4.007-4.808,17.557-35.082c8.278-18.478,6.09-28.848,3.125-34.192-.625-2.4-1.931-7.789-3.566-17.012a66.693,66.693,0,0,1-.954-11.852,23.832,23.832,0,0,0,6.282.705,21.331,21.331,0,0,0,9.616-2.051c-2.164-3.157-4.423-6.859-3.334-10.489,1.234-4.135,6.122-6.034,8.943-9.367C1070.956,506.393,1071.044,500.639,1070.042,495.535Z" transform="translate(-270.444 -145.516)"/><path class="h" d="M991.179,428.25s-8.222,4.744-5.689,11.387c0,0,8.542,2.532,12.02,8.855s30.362,29.1,30.362,29.1l19.632-9.8s-6.819-9.1-28.391-15.465c0,0-12.717-13.622-17.148-16.163A95.933,95.933,0,0,1,991.179,428.25Z" transform="translate(-275.511 -149.661)"/><path class="i" d="M996.179,433.25s-8.222,4.744-5.689,11.387c0,0,8.542,2.532,12.02,8.855s30.362,29.1,30.362,29.1l19.632-9.8s-6.819-9.1-28.391-15.465c0,0-12.717-13.622-17.148-16.163A95.939,95.939,0,0,1,996.179,433.25Z" transform="translate(-276.505 -150.654)"/><path class="d" d="M112.118,723.425s-46.2,27.878,38.968,70.8c0,0,18.767-34.841-1.979-63.248a27.974,27.974,0,0,0-36.292-7.949Z" transform="translate(-99.6 -207.517)"/><path class="j" d="M115.88,723.67s39.545,30.25,38.463,71.382" transform="translate(-102.833 -208.355)"/><path class="c" d="M165.225,774.485s-14.48-49.193,2.692-85.341a77.648,77.648,0,0,0,6.282-48.712,130.615,130.615,0,0,0-6.9-22.862" transform="translate(-111.503 -187.275)"/><path class="d" d="M177.2,586.295c0,6.026-10.906,23.495-10.906,23.495s-10.906-17.469-10.906-23.495a10.91,10.91,0,0,1,21.82,0Z" transform="translate(-110.683 -178.894)"/><path class="d" d="M199.674,626.507C196.4,631.563,177.75,640.3,177.75,640.3s.337-20.594,3.614-25.642a10.908,10.908,0,1,1,18.31,11.859Z" transform="translate(-115.126 -185.707)"/><path class="d" d="M197.711,696.71c-5.377,2.717-25.891.8-25.891.8s10.69-17.629,16.066-20.322a10.909,10.909,0,0,1,9.824,19.48Z" transform="translate(-113.947 -198.887)"/><path class="d" d="M184.968,750.641c-4.808,3.582-25.378,5.2-25.378,5.2s7.556-19.159,12.4-22.741a10.909,10.909,0,0,1,12.973,17.541Z" transform="translate(-111.518 -209.803)"/><path class="d" d="M148.345,644.7c4.319,4.2,24.456,8.55,24.456,8.55s-4.928-20.033-9.255-24.2a10.917,10.917,0,1,0-15.225,15.65Z" transform="translate(-108.622 -188.942)"/><path class="d" d="M133.423,707.19c5.377,2.716,25.891.8,25.891.8s-10.69-17.629-16.066-20.321a10.909,10.909,0,1,0-9.824,19.48Z" transform="translate(-105.127 -200.97)"/><path class="d" d="M128.363,770.541c4.808,3.582,25.378,5.2,25.378,5.2s-7.556-19.16-12.4-22.742a10.909,10.909,0,0,0-12.973,17.541Z" transform="translate(-104.435 -213.757)"/><path class="k" d="M177.2,586.295c0,6.026-10.906,23.495-10.906,23.495s-10.906-17.469-10.906-23.495a10.91,10.91,0,0,1,21.82,0Z" transform="translate(-110.683 -178.894)"/><path class="k" d="M199.674,626.507C196.4,631.563,177.75,640.3,177.75,640.3s.337-20.594,3.614-25.642a10.908,10.908,0,1,1,18.31,11.859Z" transform="translate(-115.126 -185.707)"/><path class="k" d="M197.711,696.71c-5.377,2.717-25.891.8-25.891.8s10.69-17.629,16.066-20.322a10.909,10.909,0,0,1,9.824,19.48Z" transform="translate(-113.947 -198.887)"/><path class="k" d="M184.968,750.641c-4.808,3.582-25.378,5.2-25.378,5.2s7.556-19.159,12.4-22.741a10.909,10.909,0,0,1,12.973,17.541Z" transform="translate(-111.518 -209.803)"/><path class="k" d="M148.345,644.7c4.319,4.2,24.456,8.55,24.456,8.55s-4.928-20.033-9.255-24.2a10.917,10.917,0,1,0-15.225,15.65Z" transform="translate(-108.622 -188.942)"/><path class="k" d="M133.423,707.19c5.377,2.716,25.891.8,25.891.8s-10.69-17.629-16.066-20.321a10.909,10.909,0,1,0-9.824,19.48Z" transform="translate(-105.127 -200.97)"/><path class="k" d="M128.363,770.541c4.808,3.582,25.378,5.2,25.378,5.2s-7.556-19.16-12.4-22.742a10.909,10.909,0,0,0-12.973,17.541Z" transform="translate(-104.435 -213.757)"/><path class="c" d="M207.037,775.654s-14.48-49.161,2.716-85.341a77.648,77.648,0,0,0,6.282-48.712,130.615,130.615,0,0,0-6.9-22.862" transform="translate(-119.812 -187.507)"/><path class="d" d="M219.012,587.495c0,6.026-10.906,23.495-10.906,23.495S197.2,593.521,197.2,587.495a10.91,10.91,0,0,1,21.82,0Z" transform="translate(-118.99 -179.132)"/><path class="d" d="M241.494,627.667c-3.277,5.056-21.924,13.791-21.924,13.791s.337-20.594,3.614-25.642a10.908,10.908,0,1,1,18.31,11.86Z" transform="translate(-123.434 -185.937)"/><path class="d" d="M239.521,697.87c-5.377,2.716-25.891.8-25.891.8s10.69-17.629,16.066-20.321a10.926,10.926,0,0,1,9.824,19.52Z" transform="translate(-122.254 -199.118)"/><path class="d" d="M226.778,751.811c-4.808,3.582-25.378,5.2-25.378,5.2s7.556-19.16,12.4-22.741a10.909,10.909,0,1,1,12.973,17.541Z" transform="translate(-119.824 -210.036)"/><path class="d" d="M190.175,645.863c4.319,4.2,24.456,8.55,24.456,8.55s-4.928-20.033-9.255-24.2a10.917,10.917,0,1,0-15.225,15.65Z" transform="translate(-116.933 -189.173)"/><path class="d" d="M175.233,708.35c5.377,2.716,25.891.8,25.891.8s-10.69-17.629-16.066-20.321a10.909,10.909,0,1,0-9.824,19.48Z" transform="translate(-113.434 -201.2)"/><path class="d" d="M170.173,771.711c4.808,3.582,25.378,5.2,25.378,5.2s-7.556-19.16-12.4-22.741a10.909,10.909,0,1,0-12.973,17.541Z" transform="translate(-112.742 -213.99)"/><rect class="d" width="763.658" height="5.609" transform="translate(19.666 586.432)"/><rect class="e" width="161.843" height="198.888" transform="translate(559.507 273.116)"/><rect class="d" width="156.762" height="192.645" transform="translate(562.047 276.241)"/><rect class="l" width="32.053" height="32.053" transform="translate(572.576 293.149)"/><rect class="l" width="113.787" height="6.411" transform="translate(588.603 344.434)"/><rect class="l" width="113.787" height="6.411" transform="translate(588.603 358.056)"/><rect class="l" width="113.787" height="6.411" transform="translate(588.603 371.679)"/><rect class="l" width="113.787" height="6.411" transform="translate(588.603 385.301)"/><rect class="l" width="113.787" height="6.411" transform="translate(588.603 398.923)"/><rect class="l" width="113.787" height="6.411" transform="translate(588.603 412.546)"/><rect class="l" width="113.787" height="6.411" transform="translate(588.603 426.168)"/><path class="m" d="M1053.749,764.89s.946,13.911,2.532,15.5-14.231,2.532-14.231,2.532l2.212-18.03Z" transform="translate(-286.845 -216.544)"/><path class="i" d="M1053.749,764.89s.946,13.911,2.532,15.5-14.231,2.532-14.231,2.532l2.212-18.03Z" transform="translate(-286.845 -216.544)"/><path class="n" d="M1051.592,777.211s-2.212,0-10.121,4.111c0,0-5.377-.946-7.588-8.542,0,0-6.643,11.387-11.066,12.02s-12.965,1.266-7.276,8.855,39.217,4.111,39.217,4.111S1055.7,779.423,1051.592,777.211Z" transform="translate(-281.202 -218.112)"/><path class="i" d="M1051.592,777.211s-2.212,0-10.121,4.111c0,0-5.377-.946-7.588-8.542,0,0-6.643,11.387-11.066,12.02s-12.965,1.266-7.276,8.855,39.217,4.111,39.217,4.111S1055.7,779.423,1051.592,777.211Z" transform="translate(-281.202 -218.112)"/><path class="m" d="M1050.916,788.867l-2.212,6.01-14.544-4.111.8-5.962.2-1.442.553-4.007s12.332-3.165,12.332-1.6a24.515,24.515,0,0,0,.8,3.854c.5,1.947,1.138,4.159,1.6,5.609C1050.723,788.234,1050.916,788.867,1050.916,788.867Z" transform="translate(-285.277 -219.014)"/><path class="o" d="M1040.965,670.281a8.646,8.646,0,0,0,0,8.814,15.325,15.325,0,0,0,2.276,3.149c6.955,7.588,8.855,24.665,8.855,24.665v27.509l-4.744.361-7.589.585-11.387-46.805s-6.643-34.152-3.478-40.162,6.01-43.64,6.01-43.64l2.628-2.716,6.226-6.451h18.03a12.123,12.123,0,0,1,3.51,3.919c3.029,5.008,5.745,15.425-2.556,34.657-12.965,30.042-16.764,34.785-16.764,34.785a7.286,7.286,0,0,0-1.018,1.33Z" transform="translate(-283.267 -182.908)"/><path class="i" d="M1041.094,670.111a8.646,8.646,0,0,0,0,8.814,15.319,15.319,0,0,0,2.276,3.149c6.956,7.588,8.855,24.665,8.855,24.665v27.509l-4.744.361-7.589.585-11.387-46.805s-6.643-34.152-3.478-40.162,6.01-43.64,6.01-43.64l2.628-2.716,6.226-6.451h18.03a12.124,12.124,0,0,1,3.51,3.918c3.029,5.008,5.745,15.425-2.556,34.657-12.965,30.042-16.764,34.785-16.764,34.785A7.283,7.283,0,0,0,1041.094,670.111Z" transform="translate(-283.293 -182.874)"/><path class="p" d="M1049.135,781.647l-13.695,1.715.553-4.007s12.332-3.165,12.332-1.6a24.532,24.532,0,0,0,.809,3.894Z" transform="translate(-285.531 -219.014)"/><path class="o" d="M1035.633,628.57s.8,24.9.914,40.539v8.815a19.5,19.5,0,0,1-.256,3.47c-.946,2.845.946,9.167.946,9.167a91.279,91.279,0,0,1,5.689,39.217v13.911l-15.177,1.9s2.532-1.9-4.431-20.241a79.941,79.941,0,0,1-4.88-27.742,29.689,29.689,0,0,0-2.22-10.978,13.544,13.544,0,0,1-.8-3.654,72.582,72.582,0,0,0-3.478-14.231s-7.589-22.437-9.488-38.9a90.552,90.552,0,0,1,.441-23.527,58.727,58.727,0,0,1,1.138-5.882s30.915-19.456,42.59-6.01a15.23,15.23,0,0,1,2.636,4.431,29.22,29.22,0,0,1,1.49,4.928C1054.376,621.615,1035.633,628.57,1035.633,628.57Z" transform="translate(-278.865 -181.736)"/><circle class="m" cx="16.131" cy="16.131" r="16.131" transform="translate(739.7 276.065)"/><path class="m" d="M1031.526,455.41s6.643,18.655,0,28.463,21.187,6.643,21.187,6.643l10.754-12.965s-12.653,0-13.286-22.14S1031.526,455.41,1031.526,455.41Z" transform="translate(-284.55 -153.102)"/><path class="p" d="M1058.026,602a41.506,41.506,0,0,1-7.044,1.763c-3.935.609-8.582.633-11.3-1.763-1.6-1.418-5.609-1.6-10.345-1.138-10.041.962-23.623,4.7-26.219,5.441a58.763,58.763,0,0,1,1.138-5.882s30.915-19.456,42.59-6.01h6.747a12.127,12.127,0,0,1,3.51,3.918C1057.69,600.85,1058.026,602,1058.026,602Z" transform="translate(-279.11 -181.734)"/><path class="p" d="M1050.916,790.723l-2.212,6.01-14.544-4.111.8-5.962c2.5,5.529,6.763,6.282,6.763,6.282a51.589,51.589,0,0,1,8.7-3.814C1050.723,790.09,1050.916,790.723,1050.916,790.723Z" transform="translate(-285.277 -220.87)"/><path class="n" d="M1046.843,788.661s-2.212,0-10.121,4.111c0,0-5.377-.946-7.589-8.542,0,0-6.643,11.387-11.066,12.02s-12.965,1.266-7.276,8.855,39.216,4.111,39.216,4.111S1050.953,790.873,1046.843,788.661Z" transform="translate(-280.258 -220.387)"/><path class="m" d="M962.62,446.3s.617-12.316,13.558-11.114a2.212,2.212,0,0,1,1.747,3.205l-2.652,4.992Z" transform="translate(-271.064 -151.023)"/><path class="h" d="M1037.349,480.592s-15.5-2.532-19.608-5.689c0,0-3.165,6.01-8.855,2.845s-18.975-2.845-18.975-2.845a28.679,28.679,0,0,1-13.286-19.608s-2.212-8.222-1.6-10.417c0,0-8.222-8.542-12.332,2.845,1.6,7.909,2.845,7.276,2.532,13.622l5.056,13.911s.313,4.744,9.488,11.066a202.865,202.865,0,0,1,19.608,16.131s-5.537,3-3.478,16.764c2.516,16.828-1.266,40.8-1.266,40.8v15.5s31.628-9.167,37-4.431,18.342,0,18.342,0a176.74,176.74,0,0,1-3.8-18.342,80.4,80.4,0,0,1,.313-25.642s8.222-21.82,12.02-30.674-2.845-20.834-9.488-25.3-9.111-1.771-9.111-1.771S1051.58,477.748,1037.349,480.592Z" transform="translate(-271.077 -152.353)"/><path class="i" d="M1005.15,546.481s2.524-.609,15.169-2.508S1055.1,546.5,1055.1,546.5" transform="translate(-279.513 -172.559)"/><path class="p" d="M1018.633,428.125c7.212.152,12.549,9.047,9.351,15.465-1.4,2.821-4.119,5.3-3.838,8.438.128,1.426.89,2.716,1.218,4.111,1.515,6.411-6.154,12.412-4.4,18.743a13.535,13.535,0,0,0,2.741,4.592l13.318,16.78a12.608,12.608,0,0,1,1.987,3.077,12.975,12.975,0,0,1,.577,4.928c-.064,8.013.457,16.611,5.184,23.11,5.681,7.8,17.26,10.609,25.875,6.258-2.067-3.133-4.223-6.8-3.205-10.417,1.178-4.095,5.842-5.986,8.534-9.287,3.253-4.007,3.333-9.7,2.4-14.752s-2.8-10-2.837-15.145c-.064-8.358,4.215-18.07-1.418-24.24-1.29-1.41-3.005-2.452-3.967-4.1a9.321,9.321,0,0,1-.994-4.632c-.088-9.744,5.08-19.656,1.979-28.9a9.816,9.816,0,0,0-3.55-5.145c-4.391-2.957-10.481-.088-15.562-1.6-2.4-.7-4.383-2.316-6.731-3.109-6.33-2.14-12.188,2.156-16.563,6.274a50.475,50.475,0,0,1-5.777,4.359C1023.273,422.764,1015.828,428.069,1018.633,428.125Z" transform="translate(-282.066 -146.379)"/><path class="q" d="M1019.633,428.125c7.212.152,12.549,9.047,9.351,15.465-1.4,2.821-4.119,5.3-3.838,8.438.128,1.426.89,2.716,1.218,4.111,1.515,6.411-6.154,12.412-4.4,18.743a13.533,13.533,0,0,0,2.741,4.592l13.318,16.78a12.6,12.6,0,0,1,1.987,3.077,12.973,12.973,0,0,1,.577,4.928c-.064,8.013.457,16.611,5.184,23.11,5.681,7.8,17.26,10.609,25.875,6.258-2.067-3.133-4.223-6.8-3.205-10.417,1.178-4.095,5.842-5.986,8.534-9.287,3.253-4.007,3.333-9.7,2.4-14.752s-2.8-10-2.837-15.145c-.064-8.358,4.215-18.07-1.418-24.24-1.29-1.41-3.005-2.452-3.967-4.1a9.322,9.322,0,0,1-.994-4.632c-.088-9.744,5.08-19.656,1.979-28.9a9.817,9.817,0,0,0-3.55-5.144c-4.391-2.957-10.481-.088-15.562-1.6-2.4-.7-4.383-2.316-6.731-3.109-6.33-2.14-12.188,2.156-16.563,6.274a50.464,50.464,0,0,1-5.777,4.359C1024.273,422.764,1016.828,428.069,1019.633,428.125Z" transform="translate(-282.265 -146.379)"/><path class="r" d="M698.182,582.927a27.792,27.792,0,0,1-4.736-5.81c-2.773-4.359-7.412-6.707-10.593-7.877v-1.418h.192l-.088-1.314h.088l-.224-3.478h0l-1.13-17.373s-4.087-11.643,3.125-22.3.449-20.882-6.331-24.881c0,0-3.205-16.884-.449-20.882a116.4,116.4,0,0,0-11.379-5.794q-.088-.313-.168-.641c-.072-1.6-.168-3.149-.256-4.72a17.265,17.265,0,0,1,.449-2.4q.132-.493.289-1.01a17.332,17.332,0,0,0,11.066-16.074,17.02,17.02,0,0,0-1.074-5.962,7.594,7.594,0,0,0,.8-1.891,7.716,7.716,0,0,0-1.074-5.545c-1.795-4.007-6.322-7.669-9.616-9.007-4.7-1.923-11.787-1.466-16.683-.881-2.749.329-5.89,1.258-6.883,3.8a26.3,26.3,0,0,0-.625,2.925c-1.026,3.878-5.473,5.689-8.222,8.654-2.4,2.62-3.494,6.162-4.279,9.616a88.777,88.777,0,0,0-1.6,30.186c.281,2.324.649,4.632,1.042,6.939-1.651,2.324-3.141,6.411-2.46,13.622l-5.425,25.77-2.26,15.1a13.206,13.206,0,0,0,4.071,11.555c3.462,3.4,7.661,9.143,10.249,12.869a30.645,30.645,0,0,0-1.651,10.241c.056,1.6.144,3.117.256,4.576a40.741,40.741,0,0,0,1.731,9.055c.633,6.2,1.891,14.135,4.343,19.232l.906,27.1s-1.354,24.881-4.071,29.769,5.882,46.212,5.882,46.212v5.778l-1.45,4.231-.361-.272c-6.787,8.446,0,11.555,0,11.555s1.843.088,4.808.2a5.457,5.457,0,0,0,2.893,6.018s38.463,1.779,45.243,0,4.976-8.013,1.354-7.556a16.547,16.547,0,0,1-5.417-.713c2.115-2.476.425-5.834-2.268-5.505-3.622.441-11.763-2.781-11.763-2.781v.056a6.107,6.107,0,0,0-.8-.24,90.727,90.727,0,0,1-8.951-2.524c-1.747-3.742-5.77-13.807-2.885-21.636,1.306-3.526,1.731-8.222,1.731-12.773a145.9,145.9,0,0,1,5.954-40.531l5.425-18.647s7.693-22.661,8.141-28.848l-.064-9.071c6.362,4.095,11.411,2.853,14.64.954a3.486,3.486,0,0,0,.561-5.657ZM637.8,535.793c.152-.649.28-1.362.393-2.107H641.4a16.507,16.507,0,0,1,1.6,8.742C640.551,541.627,636.881,539.72,637.8,535.793Z" transform="translate(-202.9 -148.649)"/><path class="s" d="M647.269,785.982l-1.739,5.225,5.657,5.657,18.719,4.351,13.494-1.306-.873-4.808h0a5.778,5.778,0,0,0-4.287-4.215c-5.545-1.306-16.123-4.271-18.35-8.406Z" transform="translate(-208.064 -220.039)"/><path class="p" d="M647.269,785.982l-1.739,5.225,5.657,5.657,18.719,4.351,13.494-1.306-.873-4.808h0a5.778,5.778,0,0,0-4.287-4.215c-5.545-1.306-16.123-4.271-18.35-8.406Z" transform="translate(-208.064 -220.039)"/><path class="t" d="M678.328,800.458l-2.612-3.486,2.612-4.007s7.837,3.165,11.315,2.725,5.225,5.657-1.306,7.4-43.536,0-43.536,0-6.531-3.045,0-11.315l5.657,4.351s9.616,5.225,14.368,4.351Z" transform="translate(-207.342 -221.887)"/><path class="s" d="M692.614,807.527l-13.494,1.306-18.7-4.383-5.657-5.609.465-1.386.649-1.939.633-1.9,12.621-3.486a7.821,7.821,0,0,0,2.556,2.564c4.1,2.8,11.467,4.808,15.786,5.842a4.533,4.533,0,0,1,.537.16,5.754,5.754,0,0,1,3.75,4.055Z" transform="translate(-209.898 -221.559)"/><path class="p" d="M692.614,809.343l-13.494,1.306-18.7-4.383-5.657-5.609.465-1.386,5.2,4.007s9.616,5.225,14.368,4.351h13.494l-2.612-3.486,2.348-3.622a5.754,5.754,0,0,1,3.75,4.055Z" transform="translate(-209.898 -223.375)"/><path class="t" d="M687.558,808.058l-2.612-3.486,2.612-4.007s7.837,3.165,11.315,2.724,5.225,5.657-1.306,7.4-43.536,0-43.536,0-6.531-3.045,0-11.315l5.657,4.351s9.616,5.225,14.368,4.351Z" transform="translate(-209.176 -223.397)"/><path class="s" d="M677.818,489.4s-20.9,2.18-17.845-6.531a15.673,15.673,0,0,0,.641-7.685,21.306,21.306,0,0,0-3.694-8.855l19.592,3.045a24.533,24.533,0,0,0-2.652,6.29C671.528,484.9,677.818,489.4,677.818,489.4Z" transform="translate(-210.327 -157.227)"/><path class="t" d="M638.46,619s.433,18.719,4.808,27.862l.873,26.556s-1.306,24.376-3.919,29.168,5.657,45.275,5.657,45.275v6.964s13.911,5.208,17.853-.881l-3.918-51.805,1.739-71.83Z" transform="translate(-206.659 -187.559)"/><path class="p" d="M638.46,619s.433,18.719,4.808,27.862l.873,26.556s-1.306,24.376-3.919,29.168,5.657,45.275,5.657,45.275v6.964s13.911,5.208,17.853-.881l-3.918-51.805,1.739-71.83Z" transform="translate(-206.659 -187.559)"/><path class="u" d="M626.379,544l-2.612,6.964-2.18,14.8a13.094,13.094,0,0,0,3.918,11.315c5.225,5.225,12.188,16.106,12.188,16.106l8.27-24.841s-8.27-1.306-6.964-6.963.873-16.107.873-16.107Z" transform="translate(-203.281 -172.658)"/><path class="i" d="M626.379,543l-2.612,6.963-2.18,14.8a13.094,13.094,0,0,0,3.918,11.315c5.225,5.225,12.188,16.107,12.188,16.107l8.27-24.841s-8.27-1.306-6.964-6.964.873-16.107.873-16.107Z" transform="translate(-203.281 -172.459)"/><path class="p" d="M671.958,792.672c-5.609,8.815-14.271,3.806-15.818,2.813l.633-1.9,12.621-3.486A7.82,7.82,0,0,0,671.958,792.672Z" transform="translate(-210.172 -221.553)"/><path class="t" d="M685.589,628.19c-.433,6.1-7.837,28.295-7.837,28.295l-5.217,18.27A145.364,145.364,0,0,0,666.8,714.5c0,4.455-.409,9.055-1.667,12.509-3.486,9.616,3.486,22.637,3.486,22.637-6.1,10.882-16.539,3.486-16.539,3.486v-6.963s-8.27-37.87-6.1-45.275,3.045-27.429,3.045-27.429V637.333a41,41,0,0,1-11.948-25.995c-.1-1.426-.184-2.925-.24-4.479-.353-9.824,6.362-21.339,8.983-25.442.633-.994,1.026-1.547,1.026-1.547L685.309,595.1h.088v4.784Z" transform="translate(-206.334 -179.785)"/><path class="p" d="M676.522,469.375a24.536,24.536,0,0,0-2.652,6.29,17.036,17.036,0,0,1-13.246-.481,21.307,21.307,0,0,0-3.694-8.855Z" transform="translate(-210.329 -157.227)"/><circle class="s" cx="16.98" cy="16.98" r="16.98" transform="translate(440.503 284.719)"/><path class="p" d="M687.426,599.9h-.184c-18.254,3.75-41.172-15.273-41.172-15.273a22.569,22.569,0,0,0,1.6-3.205c.633-.994,1.026-1.547,1.026-1.547L687.162,595.1l.1,1.523Z" transform="translate(-208.171 -179.785)"/><path class="u" d="M678.317,492.046s-24.376-14.8-32.213-8.71l-10.882,13.927s-6.964,2.18-5.657,16.107l-5.225,25.25,15.674,3.918s9.143,8.71,1.739,21.331c0,0,23.07,19.152,41.356,15.225l-1.346-20.442s-3.918-11.315,3.045-21.764.433-20.458-6.1-24.376C678.758,512.512,675.7,495.964,678.317,492.046Z" transform="translate(-203.854 -160.313)"/><path class="s" d="M692.222,605.4s9.143,1.739,13.494,8.71a27.133,27.133,0,0,0,4.56,5.689,3.454,3.454,0,0,1-.537,5.505c-3.454,2.076-9.087,3.358-16.2-2.492C681.34,612.8,692.222,605.4,692.222,605.4Z" transform="translate(-216.453 -184.857)"/><path class="p" d="M672.277,504.819s-8.71-.873-10.882,21.764-5.657,27.862-5.657,27.862-2.18,11.755,3.045,18.719,15.225,21.764,15.225,21.764,10.882,3.045,13.061-7.837l-13.494-25.25s-2.18-8.71,3.045-14.8S685.772,500.46,672.277,504.819Z" transform="translate(-210.003 -164.808)"/><path class="u" d="M673.367,503.189s-8.71-.873-10.882,21.764-5.657,27.862-5.657,27.862-2.18,11.755,3.045,18.719S675.1,593.3,675.1,593.3s10.882,3.045,13.061-7.837l-13.494-25.25s-2.172-8.7,3.045-14.768S686.862,498.83,673.367,503.189Z" transform="translate(-210.219 -164.485)"/><path class="p" d="M685.056,523.64s.873,13.494-3.045,20.9-3.918,16.98,0,22.2" transform="translate(-214.728 -168.613)"/><path class="p" d="M682.352,501.164s-3.486-3.486-13.494-3.918-14.368-3.486-14.368-3.486" transform="translate(-209.844 -162.676)"/><path class="p" d="M652.247,429.587c-2.644.329-5.665,1.234-6.619,3.718a26.214,26.214,0,0,0-.6,2.869c-.986,3.806-5.265,5.609-7.909,8.478-2.332,2.564-3.358,6.034-4.119,9.424a88.532,88.532,0,0,0-1.531,29.577c.849,7.212,2.588,14.328,3.069,21.58s-.4,14.881-4.367,20.971c-1.707,2.62-3.951,4.92-5.161,7.8,2.5,2.027,5.938,2.316,9.159,2.4q5.609.192,11.219,0a11.975,11.975,0,0,0,5.713-1.186,8.813,8.813,0,0,0,3-3.205c2.14-3.638,2.684-8.013,2.588-12.22s-.761-8.406-.8-12.629c-.04-2.3.136-4.736,1.458-6.619a21.16,21.16,0,0,1,3.646-3.374c4.664-4.127,6.258-10.754,6.411-16.98s-.873-12.461-.345-18.663c.208-2.4,1.114-5.345,3.5-5.818a13.467,13.467,0,0,0,2.276-.288c1.915-.737,1.731-3.438,2.276-5.417.617-2.22,2.508-3.934,3.045-6.178,1.25-5.265-5.449-11.555-9.84-13.39C663.8,428.561,656.991,429.018,652.247,429.587Z" transform="translate(-203.987 -149.828)"/><path class="v" d="M651.747,428.5c-2.644.329-5.665,1.234-6.619,3.718a26.233,26.233,0,0,0-.6,2.869c-.986,3.806-5.265,5.609-7.909,8.478-2.332,2.564-3.358,6.034-4.119,9.424a88.532,88.532,0,0,0-1.531,29.577c.849,7.212,2.588,14.328,3.069,21.58s-.4,14.881-4.367,20.971c-1.707,2.62-3.951,4.92-5.161,7.8,2.5,2.027,5.938,2.316,9.159,2.4q5.609.192,11.219,0a11.975,11.975,0,0,0,5.713-1.186,8.815,8.815,0,0,0,3-3.205c2.139-3.638,2.684-8.013,2.588-12.22s-.761-8.406-.8-12.629c-.04-2.3.136-4.736,1.458-6.619a21.16,21.16,0,0,1,3.646-3.374c4.664-4.127,6.258-10.754,6.411-16.98s-.873-12.461-.344-18.663c.208-2.4,1.114-5.345,3.5-5.818a13.467,13.467,0,0,0,2.276-.288c1.915-.737,1.731-3.438,2.276-5.417.617-2.22,2.508-3.935,3.045-6.178,1.25-5.265-5.449-11.555-9.84-13.39C663.27,427.47,656.459,427.919,651.747,428.5Z" transform="translate(-203.888 -149.61)"/></g></svg>